<?xml version="1.0" standalone="no"?>
<!DOCTYPE svg PUBLIC "-//W3C//DTD SVG 20010904//EN"
 "http://www.w3.org/TR/2001/REC-SVG-20010904/DTD/svg10.dtd">
<svg version="1.0" xmlns="http://www.w3.org/2000/svg"
 width="295.000000pt" height="171.000000pt" viewBox="0 0 295.000000 171.000000"
 preserveAspectRatio="xMidYMid meet">

<g transform="translate(0.000000,171.000000) scale(0.100000,-0.100000)"
fill="#000000" stroke="none">
<path d="M0 1230 l0 -480 24 0 c15 0 27 7 31 19 7 22 34 36 36 18 1 -7 5 2 8
18 11 44 13 -94 4 -310 -4 -105 -10 -168 -14 -150 -4 17 -7 23 -8 14 -1 -12
-10 -16 -41 -14 l-40 2 0 -173 0 -174 855 0 c848 0 855 0 855 20 0 11 5 20 11
20 6 0 13 -9 16 -20 5 -18 14 -20 79 -20 53 0 75 4 81 14 14 25 113 26 113 1
0 -8 7 -15 15 -15 8 0 15 6 15 13 0 7 9 18 20 25 19 11 20 10 17 -10 -2 -13
-2 -17 0 -11 6 18 23 16 23 -1 0 -9 9 -14 20 -13 15 1 20 7 18 22 -2 16 3 21
27 23 30 3 61 22 37 22 -7 0 -12 5 -12 10 0 6 10 8 24 4 42 -10 92 57 68 92
-9 13 -42 26 -42 16 0 -4 -21 -6 -46 -3 -45 3 -49 14 -9 24 13 4 10 5 -10 5
-59 -2 -68 1 -60 20 4 9 10 26 13 37 5 20 5 20 -17 1 -12 -11 -19 -26 -17 -33
8 -19 -24 -29 -35 -12 -5 8 -8 30 -7 49 2 45 -8 63 -33 55 -12 -4 -19 -2 -20
7 0 7 -7 -5 -16 -26 -11 -25 -13 -41 -6 -43 5 -2 8 -14 6 -27 -4 -17 0 -25 14
-29 10 -3 -3 -5 -28 -6 -26 0 -61 -4 -78 -7 -19 -4 -31 -2 -31 4 0 6 10 13 23
15 13 3 9 4 -10 4 -18 -1 -33 -5 -33 -10 0 -4 -5 -5 -10 -2 -14 9 -12 52 3 58
7 3 5 6 -5 6 -19 1 -20 84 -18 1154 l1 277 -367 0 c-330 0 -369 -2 -396 -17
-28 -17 -30 -17 -40 0 -9 18 -10 18 -25 0 -13 -16 -14 -17 -9 0 5 16 -23 17
-484 17 l-490 0 0 -480z m903 394 c15 8 21 8 24 -2 3 -7 12 -18 20 -25 8 -7
24 -21 36 -32 12 -11 35 -25 52 -32 l30 -11 -35 -1 c-20 -1 -54 -10 -75 -21
-25 -13 -68 -23 -113 -26 -72 -4 -73 -4 -61 17 6 12 14 17 18 12 9 -14 81 -4
81 11 0 7 -11 18 -24 24 -33 15 -42 48 -21 72 12 14 23 17 33 11 10 -5 23 -4
35 3z m784 -372 c-4 -13 -3 -32 3 -42 6 -12 10 -205 10 -521 l0 -501 -21 5
c-12 3 -22 0 -26 -9 -3 -8 -9 -14 -14 -14 -6 0 -7 30 -3 72 6 66 4 75 -15 92
-18 16 -30 18 -93 12 -69 -6 -71 -5 -41 8 17 8 34 23 37 33 3 10 5 72 5 136
-2 135 -14 163 -72 169 l-32 3 -2 100 c0 55 -2 103 -2 108 -1 4 -17 7 -36 7
l-35 0 0 130 c0 80 -4 130 -10 130 -6 0 -10 30 -10 69 0 80 14 73 -172 92
-144 15 -171 24 -98 33 30 3 68 4 85 1 16 -4 41 -3 55 1 l25 7 -30 13 c-35 15
-24 18 22 5 26 -8 32 -6 36 8 2 11 23 23 52 31 26 7 49 19 52 27 3 8 23 13 58
13 38 0 54 4 59 15 3 9 22 23 41 31 19 8 35 19 35 24 0 6 9 10 20 10 10 0 24
9 30 20 7 13 21 20 41 20 23 0 32 6 37 23 4 12 9 -59 12 -158 3 -99 2 -190 -3
-203z m-601 233 c5 -11 23 -15 71 -15 47 0 64 -3 61 -12 -5 -15 -74 -25 -135
-19 -35 2 -43 7 -43 23 0 17 -4 19 -27 13 -27 -6 -27 -6 -8 9 26 20 74 20 81
1z m-206 -64 c0 -5 -7 -17 -16 -25 -20 -21 -64 -21 -64 -1 0 8 -7 15 -16 15
-8 0 -12 5 -9 10 8 13 105 13 105 1z m317 -47 c-3 -3 -12 -4 -19 -1 -8 3 -5 6
6 6 11 1 17 -2 13 -5z m-219 -11 c-10 -2 -26 -2 -35 0 -10 3 -2 5 17 5 19 0
27 -2 18 -5z m59 -99 c-3 -3 -12 -4 -19 -1 -8 3 -5 6 6 6 11 1 17 -2 13 -5z
m-357 -74 c-6 -12 -14 -19 -17 -17 -2 3 1 15 7 27 6 12 14 19 17 17 2 -3 -1
-15 -7 -27z m-12 -169 l-3 -76 -48 -3 c-32 -2 -50 -9 -56 -20 -5 -10 -11 -63
-13 -119 -3 -92 -6 -103 -27 -121 -23 -18 -29 -36 -48 -165 -5 -34 -7 -37 -39
-37 -21 0 -34 -5 -34 -12 0 -15 -49 -40 -62 -32 -14 9 -78 -5 -78 -16 0 -6 9
-10 21 -10 12 0 23 -8 26 -20 7 -25 20 -25 46 -3 19 17 20 17 14 -2 -27 -87
-32 -95 -59 -95 -20 0 -28 5 -28 18 -1 16 -1 16 -11 0 -5 -10 -17 -18 -26 -18
-14 0 -14 30 -8 277 6 252 8 281 26 305 23 33 24 38 4 38 -8 0 -15 5 -15 11 0
5 4 8 9 5 5 -4 14 6 19 21 l10 28 2 -35 c2 -32 3 -33 10 -10 l8 25 1 -25 1
-24 16 22 c10 14 25 22 45 22 16 0 29 4 29 9 0 5 10 11 23 15 18 5 19 8 7 16
-12 7 -7 12 23 25 20 8 37 20 37 26 0 6 7 8 16 5 8 -3 13 -2 9 3 -3 5 9 13 27
16 18 4 42 14 53 21 11 8 27 14 37 14 13 0 18 8 19 33 l1 32 10 -34 c5 -19 8
-69 6 -110z m112 -165 c0 -3 -4 -8 -10 -11 -5 -3 -10 -1 -10 4 0 6 5 11 10 11
6 0 10 -2 10 -4z m515 -15 c3 -5 1 -12 -4 -15 -12 -8 -41 3 -41 15 0 12 37 12
45 0z m-832 -451 c3 -11 1 -20 -4 -20 -5 0 -9 9 -9 20 0 11 2 20 4 20 2 0 6
-9 9 -20z m-413 -91 c0 -5 -7 -9 -15 -9 -9 0 -15 9 -15 21 0 18 2 19 15 9 8
-7 15 -16 15 -21z m23 11 c3 -11 3 -20 1 -20 -2 0 -8 9 -14 20 -6 11 -7 20 -2
20 6 0 12 -9 15 -20z m1359 -72 c-9 -9 -15 -9 -24 0 -9 9 -7 12 12 12 19 0 21
-3 12 -12z m12 -40 c9 -34 8 -38 -9 -38 -11 0 -15 9 -13 30 3 35 13 39 22 8z
m824 -46 c2 -13 -3 -25 -12 -28 -9 -3 -16 -13 -16 -20 0 -12 -4 -12 -21 -4
-15 8 -24 8 -33 1 -21 -18 -41 -4 -43 30 -3 35 16 46 80 44 35 -1 43 -5 45
-23z m-620 -87 l1 -20 -9 20 c-5 11 -8 34 -8 50 l0 30 8 -30 c4 -16 8 -39 8
-50z"/>
<path d="M1308 1383 c7 -3 16 -2 19 1 4 3 -2 6 -13 5 -11 0 -14 -3 -6 -6z"/>
<path d="M1258 1363 c7 -3 16 -2 19 1 4 3 -2 6 -13 5 -11 0 -14 -3 -6 -6z"/>
<path d="M1823 1670 c0 -25 2 -35 4 -22 2 12 2 32 0 45 -2 12 -4 2 -4 -23z"/>
<path d="M2780 1673 c1 -69 19 -446 26 -520 4 -40 10 -70 15 -68 4 3 14 -3 21
-13 7 -10 21 -21 30 -25 15 -5 16 -3 5 20 -9 21 -9 27 1 31 14 4 15 101 5 410
l-6 202 -49 0 -48 0 0 -37z m60 -533 c0 -5 -2 -10 -4 -10 -3 0 -8 5 -11 10 -3
6 -1 10 4 10 6 0 11 -4 11 -10z"/>
<path d="M2405 1194 c-99 -36 -213 -76 -253 -90 l-73 -26 -32 24 c-53 40 -134
81 -147 73 -15 -9 -3 -44 25 -75 38 -42 45 -63 27 -76 -12 -9 6 -13 89 -18 97
-7 108 -5 168 18 76 30 81 31 81 11 0 -24 19 -18 51 18 27 28 31 30 40 15 12
-21 39 -13 39 12 0 19 26 31 75 36 16 1 34 8 40 16 5 7 24 20 40 28 40 19 75
50 75 66 0 14 -31 34 -52 34 -7 -1 -94 -30 -193 -66z"/>
<path d="M1910 1010 c-9 -6 -10 -10 -3 -10 6 0 15 5 18 10 8 12 4 12 -15 0z"/>
<path d="M2810 949 c0 -43 -10 -49 -79 -49 -53 0 -111 -24 -111 -46 0 -11 18
-14 83 -16 102 -2 98 -2 119 7 13 5 21 0 29 -19 12 -26 12 -26 31 -7 23 26 23
45 -4 100 l-22 45 -9 -27 c-5 -15 -13 -27 -19 -27 -5 0 -7 9 -3 20 3 11 2 28
-4 37 -9 15 -10 11 -11 -18z m77 -81 c-3 -8 -6 -5 -6 6 -1 11 2 17 5 13 3 -3
4 -12 1 -19z"/>
<path d="M2810 819 c0 -5 5 -7 10 -4 6 3 10 8 10 11 0 2 -4 4 -10 4 -5 0 -10
-5 -10 -11z"/>
<path d="M2825 710 c-8 -13 1 -25 18 -25 7 0 13 -13 14 -30 2 -29 2 -29 -7 -5
-7 21 -8 22 -10 5 l-1 -20 -9 20 c-6 14 -9 -1 -9 -49 -1 -61 1 -67 15 -55 13
10 17 10 25 -2 8 -12 12 -11 23 4 11 14 15 15 19 5 3 -7 5 16 5 52 0 45 -2 57
-8 40 -6 -22 -8 -23 -15 -7 -4 9 -5 28 -1 41 7 29 -3 40 -21 24 -11 -9 -16 -9
-23 1 -5 10 -9 10 -15 1z"/>
<path d="M2875 460 c-11 -17 -26 -30 -32 -30 -7 0 -13 -6 -14 -12 -2 -62 -11
-164 -14 -166 -4 -4 -69 -10 -127 -11 -24 -1 -37 -5 -35 -13 1 -7 -2 -12 -8
-13 -5 0 -15 -4 -22 -8 -6 -4 -19 -4 -29 0 -13 5 -15 3 -9 -7 6 -9 4 -11 -4
-5 -15 8 -61 -31 -61 -53 0 -10 -8 -13 -26 -9 -16 3 -28 0 -31 -9 -3 -8 -14
-14 -24 -14 -12 0 -16 -5 -13 -14 3 -8 0 -17 -6 -21 -8 -5 -8 -11 1 -21 13
-16 55 -19 64 -4 8 13 45 13 45 0 0 -6 -8 -14 -17 -17 -10 -4 -22 -11 -26 -17
-5 -7 -7 -4 -3 7 3 11 2 16 -4 12 -6 -3 -10 -13 -10 -21 0 -12 38 -14 240 -14
l240 0 0 90 c0 99 5 93 -70 92 -16 -1 -19 1 -7 4 9 3 17 9 17 13 0 4 8 16 18
27 15 16 16 34 12 131 -6 126 -15 147 -45 103z m-267 -342 c-2 -6 -10 -14 -16
-16 -7 -2 -10 2 -6 12 7 18 28 22 22 4z m-108 -18 c0 -5 -4 -10 -10 -10 -5 0
-10 5 -10 10 0 6 5 10 10 10 6 0 10 -4 10 -10z"/>
<path d="M2208 373 c7 -3 16 -2 19 1 4 3 -2 6 -13 5 -11 0 -14 -3 -6 -6z"/>
<path d="M2105 361 c-3 -5 -1 -12 5 -16 5 -3 10 1 10 9 0 18 -6 21 -15 7z"/>
<path d="M1921 287 c-22 -11 -30 -35 -10 -29 5 1 9 -2 9 -8 0 -5 8 -10 18 -10
12 0 18 8 18 30 2 34 -1 35 -35 17z"/>
<path d="M2280 280 c0 -5 7 -10 16 -10 8 0 12 5 9 10 -3 6 -10 10 -16 10 -5 0
-9 -4 -9 -10z"/>
<path d="M2293 96 c-31 -15 -29 -38 4 -53 32 -16 53 -17 53 -3 0 5 11 12 25
16 14 3 25 11 25 16 0 10 -18 8 -68 -7 -21 -7 -22 -5 -16 19 3 14 5 25 3 25
-2 -1 -14 -6 -26 -13z"/>
<path d="M2220 41 c0 -5 6 -12 13 -14 10 -4 10 -6 0 -6 -21 -2 -14 -21 7 -21
15 0 20 7 20 25 0 18 -5 25 -20 25 -11 0 -20 -4 -20 -9z"/>
</g>
</svg>
